{
  "accessors": [
    {
      "bufferView": 2,
      "componentType": 5126,
      "count": 65532,
      "max": [
        1.4903953075408936,
        0.5118947625160217,
        -2.561137080192566e-09
      ],
      "min": [
        -1.8115097284317017,
        -0.2791399657726288,
        -2.905228614807129
      ],
      "type": "VEC3"
    },
    {
      "bufferView": 2,
      "byteOffset": 786384,
      "componentType": 5126,
      "count": 65532,
      "max": [
        0.9999963045120239,
        0.999991774559021,
        1.0
      ],
      "min": [
        -0.9999959468841553,
        -0.9694053530693054,
        -0.9999808073043823
      ],
      "type": "VEC3"
    },
    {
      "bufferView": 1,
      "componentType": 5126,
      "count": 65532,
      "max": [
        0.999979555606842,
        0.5000017285346985
      ],
      "min": [
        0.00378683814778924,
        2.628108290991804e-07
      ],
      "type": "VEC2"
    },
    {
      "bufferView": 0,
      "componentType": 5125,
      "count": 386298,
      "type": "SCALAR"
    },
    {
      "bufferView": 2,
      "byteOffset": 1572768,
      "componentType": 5126,
      "count": 65532,
      "max": [
        1.5410031080245972,
        0.4588576853275299,
        -0.007369205355644226
      ],
      "min": [
        -1.2295700311660767,
        -0.14093954861164093,
        -2.9078009128570557
      ],
      "type": "VEC3"
    },
    {
      "bufferView": 2,
      "byteOffset": 2359152,
      "componentType": 5126,
      "count": 65532,
      "max": [
        0.9999998807907104,
        0.9999964237213135,
        0.9595988392829895
      ],
      "min": [
        -0.9999991059303284,
        -0.9909005165100098,
        -0.9970601201057434
      ],
      "type": "VEC3"
    },
    {
      "bufferView": 1,
      "byteOffset": 524256,
      "componentType": 5126,
      "count": 65532,
      "max": [
        0.8931978344917297,
        0.5000017285346985
      ],
      "min": [
        1.4080436812946573e-05,
        6.302354904619278e-06
      ],
      "type": "VEC2"
    },
    {
      "bufferView": 0,
      "byteOffset": 1545192,
      "componentType": 5125,
      "count": 384873,
      "type": "SCALAR"
    },
    {
      "bufferView": 2,
      "byteOffset": 3145536,
      "componentType": 5126,
      "count": 65532,
      "max": [
        1.4845391511917114,
        0.4218659996986389,
        -0.5398691296577454
      ],
      "min": [
        -0.8885654807090759,
        -0.05717955902218819,
        -2.90531063079834
      ],
      "type": "VEC3"
    },
    {
      "bufferView": 2,
      "byteOffset": 3931920,
      "componentType": 5126,
      "count": 65532,
      "max": [
        0.9999996423721313,
        0.9999991059303284,
        0.5988933444023132
      ],
      "min": [
        -0.9999997615814209,
        -0.6383364796638489,
        -0.9745392799377441
      ],
      "type": "VEC3"
    },
    {
      "bufferView": 1,
      "byteOffset": 1048512,
      "componentType": 5126,
      "count": 65532,
      "max": [
        0.790184736251831,
        0.5000015497207642
      ],
      "min": [
        0.005042802542448044,
        0.1060636043548584
      ],
      "type": "VEC2"
    },
    {
      "bufferView": 0,
      "byteOffset": 3084684,
      "componentType": 5125,
      "count": 386550,
      "type": "SCALAR"
    },
    {
      "bufferView": 2,
      "byteOffset": 4718304,
      "componentType": 5126,
      "count": 65532,
      "max": [
        1.5918128490447998,
        0.4710889160633087,
        -0.007557938806712627
      ],
      "min": [
        -0.48435473442077637,
        -0.024358540773391724,
        -2.90895414352417
      ],
      "type": "VEC3"
    },
    {
      "bufferView": 2,
      "byteOffset": 5504688,
      "componentType": 5126,
      "count": 65532,
      "max": [
        0.9999993443489075,
        0.9999991059303284,
        0.885085940361023
      ],
      "min": [
        -0.9999998807907104,
        -0.9850623607635498,
        -0.9995993971824646
      ],
      "type": "VEC3"
    },
    {
      "bufferView": 1,
      "byteOffset": 1572768,
      "componentType": 5126,
      "count": 65532,
      "max": [
        0.6482308506965637,
        0.5000004172325134
      ],
      "min": [
        1.2796815099136438e-05,
        5.729295025957981e-06
      ],
      "type": "VEC2"
    },
    {
      "bufferView": 0,
      "byteOffset": 4630884,
      "componentType": 5125,
      "count": 384636,
      "type": "SCALAR"
    },
    {
      "bufferView": 2,
      "byteOffset": 6291072,
      "componentType": 5126,
      "count": 65532,
      "max": [
        1.6700135469436646,
        0.5033352375030518,
        -3.1748786568641663e-06
      ],
      "min": [
        -1.8114851713180542,
        -0.2855619490146637,
        -2.906191349029541
      ],
      "type": "VEC3"
    },
    {
      "bufferView": 2,
      "byteOffset": 7077456,
      "componentType": 5126,
      "count": 65532,
      "max": [
        0.9999964833259583,
        0.9999990463256836,
        0.9999806880950928
      ],
      "min": [
        -0.9999962449073792,
        -0.9999681115150452,
        -1.0
      ],
      "type": "VEC3"
    },
    {
      "bufferView": 1,
      "byteOffset": 2097024,
      "componentType": 5126,
      "count": 65532,
      "max": [
        0.999979555606842,
        0.49999159574508667
      ],
      "min": [
        7.738133717793971e-06,
        2.628108290991804e-07
      ],
      "type": "VEC2"
    },
    {
      "bufferView": 0,
      "byteOffset": 6169428,
      "componentType": 5125,
      "count": 383889,
      "type": "SCALAR"
    },
    {
      "bufferView": 2,
      "byteOffset": 7863840,
      "componentType": 5126,
      "count": 65532,
      "max": [
        0.5841332077980042,
        0.44914132356643677,
        -0.0003578218165785074
      ],
      "min": [
        -1.393467903137207,
        -0.1918257772922516,
        -2.9053056240081787
      ],
      "type": "VEC3"
    },
    {
      "bufferView": 2,
      "byteOffset": 8650224,
      "componentType": 5126,
      "count": 65532,
      "max": [
        0.9999992847442627,
        0.9433974027633667,
        0.9733240604400635
      ],
      "min": [
        -0.9999998807907104,
        -0.9999847412109375,
        -0.9617928266525269
      ],
      "type": "VEC3"
    },
    {
      "bufferView": 1,
      "byteOffset": 2621280,
      "componentType": 5126,
      "count": 65532,
      "max": [
        0.9271178245544434,
        0.4999920129776001
      ],
      "min": [
        0.3015097379684448,
        8.165297913365066e-06
      ],
      "type": "VEC2"
    },
    {
      "bufferView": 0,
      "byteOffset": 7704984,
      "componentType": 5125,
      "count": 386520,
      "type": "SCALAR"
    },
    {
      "bufferView": 2,
      "byteOffset": 9436608,
      "componentType": 5126,
      "count": 65532,
      "max": [
        1.6020737886428833,
        0.5043911337852478,
        -1.2237811461091042e-05
      ],
      "min": [
        -0.857617199420929,
        -0.1317221224308014,
        -2.907845973968506
      ],
      "type": "VEC3"
    },
    {
      "bufferView": 2,
      "byteOffset": 10222992,
      "componentType": 5126,
      "count": 65532,
      "max": [
        0.9999997615814209,
        0.9956643581390381,
        0.9996516108512878
      ],
      "min": [
        -0.999976396560669,
        -0.9999984502792358,
        -0.9999992251396179
      ],
      "type": "VEC3"
    },
    {
      "bufferView": 1,
      "byteOffset": 3145536,
      "componentType": 5126,
      "count": 65532,
      "max": [
        0.7725976705551147,
        0.499991774559021
      ],
      "min": [
        0.0037806539330631495,
        5.544445230043493e-06
      ],
      "type": "VEC2"
    },
    {
      "bufferView": 0,
      "byteOffset": 9251064,
      "componentType": 5125,
      "count": 384849,
      "type": "SCALAR"
    },
    {
      "bufferView": 2,
      "byteOffset": 11009376,
      "componentType": 5126,
      "count": 65532,
      "max": [
        1.6012418270111084,
        0.5010594129562378,
        -0.08819930255413055
      ],
      "min": [
        -0.441272497177124,
        -0.037486545741558075,
        -2.3750462532043457
      ],
      "type": "VEC3"
    },
    {
      "bufferView": 2,
      "byteOffset": 11795760,
      "componentType": 5126,
      "count": 65532,
      "max": [
        0.9999998211860657,
        0.4228396415710449,
        0.7942767143249512
      ],
      "min": [
        -0.9999963045120239,
        -0.9999989867210388,
        -0.6065540909767151
      ],
      "type": "VEC3"
    },
    {
      "bufferView": 1,
      "byteOffset": 3669792,
      "componentType": 5126,
      "count": 65532,
      "max": [
        0.6620489358901978,
        0.4090932309627533
      ],
      "min": [
        0.0037806539330631495,
        0.03030906431376934
      ],
      "type": "VEC2"
    },
    {
      "bufferView": 0,
      "byteOffset": 10790460,
      "componentType": 5125,
      "count": 390006,
      "type": "SCALAR"
    },
    {
      "bufferView": 2,
      "byteOffset": 12582144,
      "componentType": 5126,
      "count": 65532,
      "max": [
        1.6826536655426025,
        0.5108915567398071,
        -0.0023607208859175444
      ],
      "min": [
        -0.23987136781215668,
        -0.11980650573968887,
        -2.907649517059326
      ],
      "type": "VEC3"
    },
    {
      "bufferView": 2,
      "byteOffset": 13368528,
      "componentType": 5126,
      "count": 65532,
      "max": [
        0.9999955892562866,
        0.9997559189796448,
        0.9999925494194031
      ],
      "min": [
        -0.9999995827674866,
        -0.9999992251396179,
        -0.9996741414070129
      ],
      "type": "VEC3"
    },
    {
      "bufferView": 1,
      "byteOffset": 4194048,
      "componentType": 5126,
      "count": 65532,
      "max": [
        0.5791366100311279,
        0.49999916553497314
      ],
      "min": [
        5.126258656673599e-06,
        2.8203958208905533e-06
      ],
      "type": "VEC2"
    },
    {
      "bufferView": 0,
      "byteOffset": 12350484,
      "componentType": 5125,
      "count": 384744,
      "type": "SCALAR"
    },
    {
      "bufferView": 2,
      "byteOffset": 14154912,
      "componentType": 5126,
      "count": 62147,
      "max": [
        1.8345868587493896,
        0.4937976896762848,
        -2.561137080192566e-09
      ],
      "min": [
        -1.8115097284317017,
        -0.2855619490146637,
        -2.90895414352417
      ],
      "type": "VEC3"
    },
    {
      "bufferView": 2,
      "byteOffset": 14900676,
      "componentType": 5126,
      "count": 62147,
      "max": [
        0.999968945980072,
        0.9999954104423523,
        0.9999884366989136
      ],
      "min": [
        -0.9995080232620239,
        -0.9999950528144836,
        -0.9999980330467224
      ],
      "type": "VEC3"
    },
    {
      "bufferView": 1,
      "byteOffset": 4718304,
      "componentType": 5126,
      "count": 62147,
      "max": [
        0.75124192237854,
        2.0028645992279053
      ],
      "min": [
        0.0,
        -1.0028645992279053
      ],
      "type": "VEC2"
    },
    {
      "bufferView": 0,
      "byteOffset": 13889460,
      "componentType": 5125,
      "count": 338835,
      "type": "SCALAR"
    }
  ],
  "asset": {
    "extras": {
      "author": "solusienna (https://sketchfab.com/solusienna)",
      "license": "CC-BY-NC-4.0 (http://creativecommons.org/licenses/by-nc/4.0/)",
      "source": "https://sketchfab.com/3d-models/red-curtain-a9a35b3a86cd4a2ab0c7b1e904492f89",
      "title": "Red Curtain"
    },
    "generator": "Sketchfab-14.64.0",
    "version": "2.0"
  },
  "bufferViews": [
    {
      "buffer": 0,
      "byteLength": 15244800,
      "name": "floatBufferViews",
      "target": 34963
    },
    {
      "buffer": 0,
      "byteLength": 5215480,
      "byteOffset": 15244800,
      "byteStride": 8,
      "name": "floatBufferViews",
      "target": 34962
    },
    {
      "buffer": 0,
      "byteLength": 15646440,
      "byteOffset": 20460280,
      "byteStride": 12,
      "name": "floatBufferViews",
      "target": 34962
    }
  ],
  "buffers": [
    {
      "byteLength": 36106720,
      "uri": "scene.bin"
    }
  ],
  "images": [
    {
      "uri": "textures/Velvet_baseColor.png"
    }
  ],
  "materials": [
    {
      "doubleSided": true,
      "name": "Velvet",
      "pbrMetallicRoughness": {
        "baseColorTexture": {
          "index": 0
        },
        "metallicFactor": 0.0,
        "roughnessFactor": 0.75
      }
    }
  ],
  "meshes": [
    {
      "name": "Object_0",
      "primitives": [
        {
          "attributes": {
            "NORMAL": 1,
            "POSITION": 0,
            "TEXCOORD_0": 2
          },
          "indices": 3,
          "material": 0,
          "mode": 4
        }
      ]
    },
    {
      "name": "Object_1",
      "primitives": [
        {
          "attributes": {
            "NORMAL": 5,
            "POSITION": 4,
            "TEXCOORD_0": 6
          },
          "indices": 7,
          "material": 0,
          "mode": 4
        }
      ]
    },
    {
      "name": "Object_2",
      "primitives": [
        {
          "attributes": {
            "NORMAL": 9,
            "POSITION": 8,
            "TEXCOORD_0": 10
          },
          "indices": 11,
          "material": 0,
          "mode": 4
        }
      ]
    },
    {
      "name": "Object_3",
      "primitives": [
        {
          "attributes": {
            "NORMAL": 13,
            "POSITION": 12,
            "TEXCOORD_0": 14
          },
          "indices": 15,
          "material": 0,
          "mode": 4
        }
      ]
    },
    {
      "name": "Object_4",
      "primitives": [
        {
          "attributes": {
            "NORMAL": 17,
            "POSITION": 16,
            "TEXCOORD_0": 18
          },
          "indices": 19,
          "material": 0,
          "mode": 4
        }
      ]
    },
    {
      "name": "Object_5",
      "primitives": [
        {
          "attributes": {
            "NORMAL": 21,
            "POSITION": 20,
            "TEXCOORD_0": 22
          },
          "indices": 23,
          "material": 0,
          "mode": 4
        }
      ]
    },
    {
      "name": "Object_6",
      "primitives": [
        {
          "attributes": {
            "NORMAL": 25,
            "POSITION": 24,
            "TEXCOORD_0": 26
          },
          "indices": 27,
          "material": 0,
          "mode": 4
        }
      ]
    },
    {
      "name": "Object_7",
      "primitives": [
        {
          "attributes": {
            "NORMAL": 29,
            "POSITION": 28,
            "TEXCOORD_0": 30
          },
          "indices": 31,
          "material": 0,
          "mode": 4
        }
      ]
    },
    {
      "name": "Object_8",
      "primitives": [
        {
          "attributes": {
            "NORMAL": 33,
            "POSITION": 32,
            "TEXCOORD_0": 34
          },
          "indices": 35,
          "material": 0,
          "mode": 4
        }
      ]
    },
    {
      "name": "Object_9",
      "primitives": [
        {
          "attributes": {
            "NORMAL": 37,
            "POSITION": 36,
            "TEXCOORD_0": 38
          },
          "indices": 39,
          "material": 0,
          "mode": 4
        }
      ]
    }
  ],
  "nodes": [
    {
      "children": [
        1
      ],
      "matrix": [
        1.0,
        0.0,
        0.0,
        0.0,
        0.0,
        2.220446049250313e-16,
        -1.0,
        0.0,
        0.0,
        1.0,
        2.220446049250313e-16,
        0.0,
        0.0,
        0.0,
        0.0,
        1.0
      ],
      "name": "Sketchfab_model"
    },
    {
      "children": [
        2
      ],
      "name": "root"
    },
    {
      "children": [
        3
      ],
      "matrix": [
        1.0,
        0.0,
        0.0,
        0.0,
        0.0,
        2.220446049250313e-16,
        1.0,
        0.0,
        0.0,
        -1.0,
        2.220446049250313e-16,
        0.0,
        0.0,
        0.0,
        0.0,
        1.0
      ],
      "name": "GLTF_SceneRootNode"
    },
    {
      "children": [
        4,
        5,
        6,
        7,
        8,
        9,
        10,
        11,
        12,
        13
      ],
      "matrix": [
        1.0,
        0.0,
        0.0,
        0.0,
        0.0,
        -1.685873969314855e-07,
        0.9999999999999858,
        0.0,
        0.0,
        -0.9999999999999858,
        -1.685873969314855e-07,
        0.0,
        0.0,
        0.0,
        0.0,
        1.0
      ],
      "name": "curtain-02_1"
    },
    {
      "mesh": 0,
      "name": "Object_4"
    },
    {
      "mesh": 1,
      "name": "Object_5"
    },
    {
      "mesh": 2,
      "name": "Object_6"
    },
    {
      "mesh": 3,
      "name": "Object_7"
    },
    {
      "mesh": 4,
      "name": "Object_8"
    },
    {
      "mesh": 5,
      "name": "Object_9"
    },
    {
      "mesh": 6,
      "name": "Object_10"
    },
    {
      "mesh": 7,
      "name": "Object_11"
    },
    {
      "mesh": 8,
      "name": "Object_12"
    },
    {
      "mesh": 9,
      "name": "Object_13"
    }
  ],
  "samplers": [
    {
      "magFilter": 9729,
      "minFilter": 9987,
      "wrapS": 10497,
      "wrapT": 10497
    }
  ],
  "scene": 0,
  "scenes": [
    {
      "name": "Sketchfab_Scene",
      "nodes": [
        0
      ]
    }
  ],
  "textures": [
    {
      "sampler": 0,
      "source": 0
    }
  ]
}
